<svg width="30" height="30" viewBox="0 0 40 41" fill="none" xmlns="http://www.w3.org/2000/svg">
<path fill-rule="evenodd" clip-rule="evenodd" d="M4.58334 3.87964C3.80669 3.87964 3.17709 4.50924 3.17709 5.28589C3.17709 6.06254 3.80669 6.69214 4.58334 6.69214H7.65204L8.21908 8.96029L11.144 20.66C9.44036 21.0805 8.17709 22.619 8.17709 24.4526C8.17709 26.6099 9.92598 28.3588 12.0833 28.3588H31.25C32.0267 28.3588 32.6563 27.7292 32.6563 26.9526C32.6563 26.1759 32.0267 25.5463 31.25 25.5463H12.0833C11.4793 25.5463 10.9896 25.0566 10.9896 24.4526C10.9896 23.8485 11.4793 23.3588 12.0833 23.3588H12.9167H31.25C31.8953 23.3588 32.4578 22.9196 32.6143 22.2936L35.9476 8.96029C36.0526 8.54018 35.9582 8.09512 35.6918 7.7538C35.4253 7.41248 35.0164 7.21297 34.5833 7.21297H10.6813L10.1143 4.94482C9.95777 4.31881 9.39529 3.87964 8.75001 3.87964H4.58334ZM12.9167 30.5463C11.2196 30.5463 9.84376 31.9221 9.84376 33.6192C9.84376 35.3163 11.2196 36.6921 12.9167 36.6921C14.6138 36.6921 15.9896 35.3163 15.9896 33.6192C15.9896 31.9221 14.6138 30.5463 12.9167 30.5463ZM29.5833 30.5463C27.8862 30.5463 26.5104 31.9221 26.5104 33.6192C26.5104 35.3163 27.8862 36.6921 29.5833 36.6921C31.2805 36.6921 32.6563 35.3163 32.6563 33.6192C32.6563 31.9221 31.2805 30.5463 29.5833 30.5463Z" fill="#F0EFEF"/>
</svg>
