<?xml version="1.0" encoding="UTF-8"?>
<!DOCTYPE svg PUBLIC "-//W3C//DTD SVG 1.1//EN" "http://www.w3.org/Graphics/SVG/1.1/DTD/svg11.dtd">
<svg xmlns="http://www.w3.org/2000/svg" version="1.1" width="48px" height="48px" style="shape-rendering:geometricPrecision; text-rendering:geometricPrecision; image-rendering:optimizeQuality; fill-rule:evenodd; clip-rule:evenodd" xmlns:xlink="http://www.w3.org/1999/xlink">
<g><path style="opacity:0.969" fill="#91a5af" d="M 44.5,24.5 C 43.1667,24.5 41.8333,24.5 40.5,24.5C 29.6353,10.4722 18.3019,10.1388 6.5,23.5C 5.29208,24.2341 3.95875,24.5674 2.5,24.5C 0.971888,24.4827 0.471888,23.816 1,22.5C 15.9523,5.173 30.9523,5.173 46,22.5C 46.5281,23.816 46.0281,24.4827 44.5,24.5 Z"/></g>
<g><path style="opacity:0.998" fill="#f7fafb" d="M 40.5,24.5 C 30.257,38.2183 19.0903,38.8849 7,26.5C 6.51722,25.552 6.35055,24.552 6.5,23.5C 18.3019,10.1388 29.6353,10.4722 40.5,24.5 Z"/></g>
<g><path style="opacity:1" fill="#15aec2" d="M 19.5,15.5 C 28.4946,14.6631 32.6613,18.6631 32,27.5C 29.6471,32.4264 25.8138,34.2598 20.5,33C 15.2685,30.3674 13.4351,26.2008 15,20.5C 16.7073,18.9625 18.2073,17.2959 19.5,15.5 Z"/></g>
<g><path style="opacity:1" fill="#006469" d="M 21.5,20.5 C 27.4877,20.664 28.821,23.164 25.5,28C 19.4034,28.1475 18.0701,25.6475 21.5,20.5 Z"/></g>
<g><path style="opacity:0.872" fill="#d0d9dd" d="M 6.5,23.5 C 6.35055,24.552 6.51722,25.552 7,26.5C 19.0903,38.8849 30.257,38.2183 40.5,24.5C 41.8333,24.5 43.1667,24.5 44.5,24.5C 36.3477,37.5769 25.3477,40.7436 11.5,34C 7.61982,31.6211 4.61982,28.4544 2.5,24.5C 3.95875,24.5674 5.29208,24.2341 6.5,23.5 Z"/></g>
</svg>
