<svg width="21" height="22" viewBox="0 0 21 22" fill="none" xmlns="http://www.w3.org/2000/svg">
<g clip-path="url(#clip0_129_88)">
<path d="M15.4805 0.00450689L12.8037 0C9.7965 0 7.85309 2.09232 7.85309 5.33075V7.78858H5.16174C4.92917 7.78858 4.74084 7.98643 4.74084 8.23048V11.7916C4.74084 12.0356 4.92939 12.2333 5.16174 12.2333H7.85309V21.2191C7.85309 21.4632 8.04142 21.6608 8.27398 21.6608H11.7854C12.018 21.6608 12.2063 21.4629 12.2063 21.2191V12.2333H15.3531C15.5857 12.2333 15.774 12.0356 15.774 11.7916L15.7753 8.23048C15.7753 8.1133 15.7309 8.00108 15.6521 7.91815C15.5733 7.83523 15.4659 7.78858 15.3542 7.78858H12.2063V5.70504C12.2063 4.70361 12.4337 4.19524 13.6769 4.19524L15.4801 4.19456C15.7124 4.19456 15.9007 3.99671 15.9007 3.75289V0.446182C15.9007 0.202585 15.7126 0.00495758 15.4805 0.00450689Z" fill="#1F1C14"/>
</g>
<defs>
<clipPath id="clip0_129_88">
<rect width="20.6418" height="21.6608" fill="white"/>
</clipPath>
</defs>
</svg>
