<svg width="22" height="20" viewBox="0 0 22 20" fill="none" xmlns="http://www.w3.org/2000/svg">
<g clip-path="url(#clip0_129_91)">
<path d="M20.2456 18.0744C20.2899 18.0749 20.3338 18.0659 20.3746 18.048C20.4154 18.0301 20.4522 18.0036 20.4828 17.9703C20.5133 17.937 20.537 17.8975 20.5522 17.8543C20.5675 17.8111 20.5741 17.7652 20.5715 17.7192C20.5715 17.4673 20.4252 17.3469 20.1251 17.3469H19.6403V18.6659H19.8226V18.0909H20.0467L20.0519 18.0979L20.3997 18.6659H20.5947L20.2205 18.0781L20.2456 18.0744ZM20.0346 17.9423H19.8232V17.4964H20.0912C20.2297 17.4964 20.3875 17.5199 20.3875 17.7083C20.3875 17.9249 20.2278 17.9423 20.0336 17.9423" fill="#1F1C14"/>
<path d="M15.4884 16.4214H12.9023V12.2133C12.9023 11.2098 12.885 9.91801 11.5572 9.91801C10.2102 9.91801 10.0041 11.0113 10.0041 12.1402V16.4211H7.41799V7.76748H9.90069V8.95009H9.93545C10.1839 8.50869 10.5429 8.14557 10.9743 7.89941C11.4057 7.65325 11.8932 7.53326 12.385 7.55223C15.0062 7.55223 15.4895 9.34364 15.4895 11.6742L15.4884 16.4214ZM4.49996 6.58459C4.20313 6.58464 3.91295 6.49324 3.66612 6.32194C3.41929 6.15064 3.2269 5.90714 3.11326 5.62222C2.99962 5.33731 2.96984 5.02378 3.0277 4.72128C3.08555 4.41878 3.22845 4.1409 3.4383 3.92278C3.64814 3.70466 3.91553 3.55609 4.20664 3.49587C4.49776 3.43565 4.79951 3.46647 5.07376 3.58445C5.34801 3.70242 5.58243 3.90224 5.74739 4.15865C5.91234 4.41506 6.00041 4.71653 6.00047 5.02494C6.0005 5.22972 5.96171 5.4325 5.88632 5.62171C5.81093 5.81091 5.70043 5.98283 5.56109 6.12766C5.42176 6.27249 5.25632 6.38738 5.07425 6.46578C4.89219 6.54418 4.69704 6.58455 4.49996 6.58459ZM5.79303 16.4214H3.20419V7.76748H5.79303V16.4214ZM16.7777 0.970474H1.90466C1.56708 0.966516 1.24179 1.10197 1.00028 1.34708C0.758777 1.59219 0.620819 1.92689 0.616699 2.27764V17.7955C0.620678 18.1464 0.758555 18.4813 1.00005 18.7267C1.24155 18.972 1.56691 19.1078 1.90466 19.104H16.7777C17.1161 19.1084 17.4424 18.9731 17.6848 18.7278C17.9273 18.4824 18.0661 18.1471 18.0708 17.7955V2.27652C18.0659 1.92508 17.927 1.58999 17.6846 1.34489C17.4421 1.09979 17.1159 0.964719 16.7777 0.969354" fill="#1F1C14"/>
<path d="M20.057 16.7593C19.7424 16.7624 19.4417 16.8949 19.2208 17.1277C18.9999 17.3606 18.8768 17.6749 18.8783 18.0018C18.8798 18.3287 19.0059 18.6417 19.2289 18.8724C19.452 19.103 19.7538 19.2325 20.0685 19.2325C20.3831 19.2325 20.685 19.103 20.908 18.8724C21.131 18.6417 21.2571 18.3287 21.2586 18.0018C21.2601 17.6749 21.137 17.3606 20.9161 17.1277C20.6952 16.8949 20.3946 16.7624 20.0799 16.7593H20.057ZM20.057 19.0909C19.8506 19.0945 19.6479 19.0344 19.4744 18.9182C19.3009 18.802 19.1644 18.635 19.0823 18.4383C19.0001 18.2415 18.9759 18.0239 19.0128 17.8129C19.0497 17.6019 19.146 17.407 19.2895 17.2528C19.433 17.0987 19.6173 16.9922 19.819 16.9468C20.0208 16.9015 20.2309 16.9193 20.4229 16.9981C20.6149 17.0769 20.7801 17.213 20.8976 17.3893C21.0151 17.5656 21.0797 17.7742 21.0831 17.9886C21.0831 17.9948 21.0831 18.0007 21.0831 18.0068C21.0889 18.2881 20.9869 18.5603 20.7996 18.7635C20.6123 18.9667 20.355 19.0842 20.0842 19.0903H20.0573" fill="#1F1C14"/>
</g>
<defs>
<clipPath id="clip0_129_91">
<rect width="20.6418" height="18.2853" fill="white" transform="translate(0.616699 0.969238)"/>
</clipPath>
</defs>
</svg>
