<svg width="29" height="32" viewBox="0 0 29 32" fill="none" xmlns="http://www.w3.org/2000/svg">
<path fill-rule="evenodd" clip-rule="evenodd" d="M5 1H7.87871C8.02013 1 8.09084 1 8.13478 1.04393C8.17871 1.08787 8.17871 1.15858 8.17871 1.3V4C8.17871 4.82843 8.85028 5.5 9.67871 5.5C10.5071 5.5 11.1787 4.82843 11.1787 4V1.3C11.1787 1.15858 11.1787 1.08787 11.2226 1.04393C11.2666 1 11.3373 1 11.4787 1H17.5216C17.663 1 17.7337 1 17.7776 1.04393C17.8216 1.08787 17.8216 1.15858 17.8216 1.3V4C17.8216 4.82843 18.4931 5.5 19.3216 5.5C20.15 5.5 20.8216 4.82843 20.8216 4V1.3C20.8216 1.15858 20.8216 1.08787 20.8655 1.04393C20.9094 1 20.9801 1 21.1216 1H24C25.8856 1 26.8284 1 27.4142 1.58579C28 2.17157 28 3.11438 28 5V27C28 28.8856 28 29.8284 27.4142 30.4142C26.8284 31 25.8856 31 24 31H5C3.11438 31 2.17157 31 1.58579 30.4142C1 29.8284 1 28.8856 1 27V5C1 3.11438 1 2.17157 1.58579 1.58579C2.17157 1 3.11438 1 5 1ZM9.61621 12.02C9.34007 12.02 9.11621 12.2439 9.11621 12.52C9.11621 12.7961 9.34007 13.02 9.61621 13.02H19.2591C19.5352 13.02 19.7591 12.7961 19.7591 12.52C19.7591 12.2439 19.5352 12.02 19.2591 12.02H9.61621ZM9.11621 18.52C9.11621 18.2439 9.34007 18.02 9.61621 18.02L19.2591 18.02C19.5352 18.02 19.7591 18.2439 19.7591 18.52C19.7591 18.7962 19.5352 19.02 19.2591 19.02L9.61621 19.02C9.34007 19.02 9.11621 18.7962 9.11621 18.52ZM9.61621 24.02C9.34007 24.02 9.11621 24.2439 9.11621 24.52C9.11621 24.7961 9.34007 25.02 9.61621 25.02H19.2591C19.5352 25.02 19.7591 24.7961 19.7591 24.52C19.7591 24.2439 19.5352 24.02 19.2591 24.02H9.61621Z" fill="white"/>
<path d="M9.61621 18.02L9.61621 17.52H9.61621V18.02ZM19.2591 18.02L19.2591 18.52H19.2591V18.02ZM19.2591 19.02L19.2591 19.52H19.2591V19.02ZM9.61621 19.02L9.61621 18.52H9.61621V19.02ZM9.61621 24.02L9.61621 24.52H9.61621V24.02ZM9.61621 25.02L9.61621 25.52H9.61621V25.02ZM17.7776 1.04393L17.4241 1.39749L17.7776 1.04393ZM20.8655 1.04393L21.2191 1.39749L20.8655 1.04393ZM11.2226 1.04393L11.5762 1.39749L11.2226 1.04393ZM8.13478 1.04393L7.78122 1.39749L8.13478 1.04393ZM7.87871 0.5H5V1.5H7.87871V0.5ZM8.67871 4V1.3H7.67871V4H8.67871ZM9.67871 5C9.12643 5 8.67871 4.55229 8.67871 4H7.67871C7.67871 5.10457 8.57414 6 9.67871 6V5ZM10.6787 4C10.6787 4.55229 10.231 5 9.67871 5V6C10.7833 6 11.6787 5.10457 11.6787 4H10.6787ZM10.6787 1.3V4H11.6787V1.3H10.6787ZM17.5216 0.5H11.4787V1.5H17.5216V0.5ZM18.3216 4V1.3H17.3216V4H18.3216ZM19.3216 5C18.7693 5 18.3216 4.55229 18.3216 4H17.3216C17.3216 5.10457 18.217 6 19.3216 6V5ZM20.3216 4C20.3216 4.55229 19.8739 5 19.3216 5V6C20.4261 6 21.3216 5.10457 21.3216 4H20.3216ZM20.3216 1.3V4H21.3216V1.3H20.3216ZM24 0.5H21.1216V1.5H24V0.5ZM27.7678 1.23223C27.3665 0.830955 26.8612 0.65836 26.2612 0.577682C25.6755 0.498938 24.9287 0.5 24 0.5V1.5C24.9569 1.5 25.6244 1.50106 26.1279 1.56876C26.6171 1.63453 26.8762 1.75483 27.0607 1.93934L27.7678 1.23223ZM28.5 5C28.5 4.07133 28.5011 3.32452 28.4223 2.73883C28.3416 2.13876 28.169 1.63351 27.7678 1.23223L27.0607 1.93934C27.2452 2.12385 27.3655 2.3829 27.4312 2.87208C27.4989 3.37565 27.5 4.04306 27.5 5H28.5ZM28.5 27V5H27.5V27H28.5ZM27.7678 30.7678C28.169 30.3665 28.3416 29.8612 28.4223 29.2612C28.5011 28.6755 28.5 27.9287 28.5 27H27.5C27.5 27.9569 27.4989 28.6244 27.4312 29.1279C27.3655 29.6171 27.2452 29.8762 27.0607 30.0607L27.7678 30.7678ZM24 31.5C24.9287 31.5 25.6755 31.5011 26.2612 31.4223C26.8612 31.3416 27.3665 31.169 27.7678 30.7678L27.0607 30.0607C26.8762 30.2452 26.6171 30.3655 26.1279 30.4312C25.6244 30.4989 24.9569 30.5 24 30.5V31.5ZM5 31.5H24V30.5H5V31.5ZM1.23223 30.7678C1.63351 31.169 2.13876 31.3416 2.73883 31.4223C3.32452 31.5011 4.07133 31.5 5 31.5V30.5C4.04306 30.5 3.37565 30.4989 2.87208 30.4312C2.3829 30.3655 2.12385 30.2452 1.93934 30.0607L1.23223 30.7678ZM0.5 27C0.5 27.9287 0.498938 28.6755 0.577682 29.2612C0.65836 29.8612 0.830955 30.3665 1.23223 30.7678L1.93934 30.0607C1.75483 29.8762 1.63453 29.6171 1.56876 29.1279C1.50106 28.6244 1.5 27.9569 1.5 27H0.5ZM0.5 5V27H1.5V5H0.5ZM1.23223 1.23223C0.830955 1.63351 0.65836 2.13876 0.577682 2.73883C0.498938 3.32452 0.5 4.07133 0.5 5H1.5C1.5 4.04306 1.50106 3.37565 1.56876 2.87208C1.63453 2.3829 1.75483 2.12385 1.93934 1.93934L1.23223 1.23223ZM5 0.5C4.07133 0.5 3.32452 0.498938 2.73883 0.577682C2.13876 0.65836 1.63351 0.830955 1.23223 1.23223L1.93934 1.93934C2.12385 1.75483 2.3829 1.63453 2.87208 1.56876C3.37565 1.50106 4.04306 1.5 5 1.5V0.5ZM9.61621 12.52V11.52C9.06393 11.52 8.61621 11.9677 8.61621 12.52H9.61621ZM9.61621 12.52H8.61621C8.61621 13.0723 9.06393 13.52 9.61621 13.52V12.52ZM19.2591 12.52H9.61621V13.52H19.2591V12.52ZM19.2591 12.52V13.52C19.8114 13.52 20.2591 13.0723 20.2591 12.52H19.2591ZM19.2591 12.52H20.2591C20.2591 11.9677 19.8114 11.52 19.2591 11.52V12.52ZM9.61621 12.52H19.2591V11.52H9.61621V12.52ZM9.61621 17.52C9.06393 17.52 8.61621 17.9677 8.61621 18.52H9.61621V17.52ZM19.2591 17.52L9.61621 17.52L9.61621 18.52L19.2591 18.52L19.2591 17.52ZM20.2591 18.52C20.2591 17.9677 19.8114 17.52 19.2591 17.52V18.52H20.2591ZM19.2591 19.52C19.8114 19.52 20.2591 19.0723 20.2591 18.52H19.2591V19.52ZM9.61621 19.52L19.2591 19.52L19.2591 18.52L9.61621 18.52L9.61621 19.52ZM8.61621 18.52C8.61621 19.0723 9.06393 19.52 9.61621 19.52V18.52H8.61621ZM9.61621 24.52L9.61621 24.52L9.61621 23.52C9.06393 23.52 8.61621 23.9677 8.61621 24.52H9.61621ZM9.61621 24.52L9.61621 24.52H8.61621C8.61621 25.0723 9.06393 25.52 9.61621 25.52L9.61621 24.52ZM19.2591 24.52H9.61621V25.52H19.2591V24.52ZM19.2591 24.52V25.52C19.8114 25.52 20.2591 25.0723 20.2591 24.52H19.2591ZM19.2591 24.52H20.2591C20.2591 23.9677 19.8114 23.52 19.2591 23.52V24.52ZM9.61621 24.52H19.2591V23.52H9.61621V24.52ZM17.5216 1.5C17.5588 1.5 17.5829 1.50003 17.6025 1.50053C17.6223 1.50103 17.6252 1.50179 17.6195 1.50103C17.6136 1.50023 17.5859 1.49624 17.5487 1.48093C17.5075 1.46398 17.4634 1.43681 17.4241 1.39749L18.1312 0.690381C18.0008 0.560029 17.8491 0.522896 17.7528 0.50995C17.6709 0.498938 17.5781 0.5 17.5216 0.5V1.5ZM18.3216 1.3C18.3216 1.24342 18.3226 1.15069 18.3116 1.06879C18.2987 0.972494 18.2615 0.820732 18.1312 0.690381L17.4241 1.39749C17.3848 1.35816 17.3576 1.31402 17.3406 1.27283C17.3253 1.23562 17.3213 1.20801 17.3205 1.20203C17.3198 1.19638 17.3205 1.19927 17.321 1.21912C17.3215 1.23872 17.3216 1.26279 17.3216 1.3H18.3216ZM21.3216 1.3C21.3216 1.26279 21.3216 1.23872 21.3221 1.21912C21.3226 1.19927 21.3234 1.19638 21.3226 1.20203C21.3218 1.20801 21.3178 1.23562 21.3025 1.27283C21.2856 1.31402 21.2584 1.35816 21.2191 1.39749L20.512 0.690381C20.3816 0.820732 20.3445 0.972494 20.3315 1.06879C20.3205 1.15069 20.3216 1.24342 20.3216 1.3H21.3216ZM21.1216 0.5C21.065 0.5 20.9723 0.498938 20.8904 0.50995C20.7941 0.522896 20.6423 0.560029 20.512 0.690381L21.2191 1.39749C21.1797 1.43681 21.1356 1.46398 21.0944 1.48093C21.0572 1.49624 21.0296 1.50023 21.0236 1.50103C21.0179 1.50179 21.0208 1.50103 21.0407 1.50053C21.0603 1.50003 21.0844 1.5 21.1216 1.5V0.5ZM11.6787 1.3C11.6787 1.26279 11.6787 1.23872 11.6792 1.21912C11.6797 1.19927 11.6805 1.19638 11.6797 1.20203C11.6789 1.20801 11.6749 1.23562 11.6596 1.27283C11.6427 1.31402 11.6155 1.35816 11.5762 1.39749L10.8691 0.690381C10.7387 0.820732 10.7016 0.972494 10.6887 1.06879C10.6776 1.15069 10.6787 1.24342 10.6787 1.3H11.6787ZM11.4787 0.5C11.4221 0.5 11.3294 0.498938 11.2475 0.50995C11.1512 0.522896 10.9994 0.560029 10.8691 0.690381L11.5762 1.39749C11.5369 1.43681 11.4927 1.46398 11.4515 1.48093C11.4143 1.49624 11.3867 1.50023 11.3807 1.50103C11.3751 1.50179 11.378 1.50103 11.3978 1.50053C11.4174 1.50003 11.4415 1.5 11.4787 1.5V0.5ZM7.87871 1.5C7.91592 1.5 7.93999 1.50003 7.95959 1.50053C7.97944 1.50103 7.98233 1.50179 7.97668 1.50103C7.9707 1.50023 7.94309 1.49624 7.90588 1.48093C7.86469 1.46398 7.82055 1.43681 7.78122 1.39749L8.48833 0.690381C8.35798 0.560029 8.20622 0.522896 8.10993 0.50995C8.02802 0.498938 7.93529 0.5 7.87871 0.5V1.5ZM8.67871 1.3C8.67871 1.24342 8.67977 1.15069 8.66876 1.06879C8.65581 0.972494 8.61868 0.820732 8.48833 0.690381L7.78122 1.39749C7.7419 1.35816 7.71473 1.31402 7.69778 1.27283C7.68247 1.23562 7.67848 1.20801 7.67768 1.20203C7.67692 1.19638 7.67768 1.19927 7.67818 1.21912C7.67868 1.23872 7.67871 1.26279 7.67871 1.3H8.67871Z" fill="#76C1E1"/>
</svg>
