<svg width="49" height="51" viewBox="0 0 49 51" fill="none" xmlns="http://www.w3.org/2000/svg">
<path fill-rule="evenodd" clip-rule="evenodd" d="M17.6373 11.5357C17.6373 11.3942 17.6373 11.3235 17.5934 11.2796C17.5494 11.2357 17.4787 11.2357 17.3373 11.2357H14.0723C12.1866 11.2357 11.2438 11.2357 10.6581 11.8215C10.0723 12.4072 10.0723 13.35 10.0723 15.2357V38.4857C10.0723 40.3713 10.0723 41.3141 10.6581 41.8999C11.2438 42.4857 12.1866 42.4857 14.0722 42.4857H14.0723H34.2745H34.2746C36.1602 42.4857 37.103 42.4857 37.6888 41.8999C38.2745 41.3141 38.2745 40.3713 38.2745 38.4857V15.2357C38.2745 13.35 38.2745 12.4072 37.6888 11.8215C37.103 11.2357 36.1602 11.2357 34.2745 11.2357H31.0095C30.8681 11.2357 30.7974 11.2357 30.7535 11.2796C30.7095 11.3235 30.7095 11.3942 30.7095 11.5357V14.3607C30.7095 15.1891 30.038 15.8607 29.2095 15.8607C28.3811 15.8607 27.7095 15.1891 27.7095 14.3607V11.5357C27.7095 11.3942 27.7095 11.3235 27.6656 11.2796C27.6217 11.2357 27.551 11.2357 27.4095 11.2357H20.9373C20.7959 11.2357 20.7252 11.2357 20.6812 11.2796C20.6373 11.3235 20.6373 11.3942 20.6373 11.5357V14.3607C20.6373 15.1891 19.9657 15.8607 19.1373 15.8607C18.3089 15.8607 17.6373 15.1891 17.6373 14.3607V11.5357Z" fill="#7E869E" fill-opacity="0.25"/>
<path fill-rule="evenodd" clip-rule="evenodd" d="M17.6373 11.5357C17.6373 11.3942 17.6373 11.3235 17.5934 11.2796C17.5494 11.2357 17.4787 11.2357 17.3373 11.2357H14.0723C12.1866 11.2357 11.2438 11.2357 10.6581 11.8215C10.0723 12.4072 10.0723 13.35 10.0723 15.2357V38.4857C10.0723 40.3713 10.0723 41.3141 10.6581 41.8999C11.2438 42.4857 12.1866 42.4857 14.0723 42.4857H34.2745C36.1602 42.4857 37.103 42.4857 37.6888 41.8999C38.2745 41.3141 38.2745 40.3713 38.2745 38.4857V15.2357C38.2745 13.35 38.2745 12.4072 37.6888 11.8215C37.103 11.2357 36.1602 11.2357 34.2745 11.2357H31.0095C30.8681 11.2357 30.7974 11.2357 30.7535 11.2796C30.7095 11.3235 30.7095 11.3942 30.7095 11.5357V14.3607C30.7095 15.1891 30.038 15.8607 29.2095 15.8607C28.3811 15.8607 27.7095 15.1891 27.7095 14.3607V11.5357C27.7095 11.3942 27.7095 11.3235 27.6656 11.2796C27.6217 11.2357 27.551 11.2357 27.4095 11.2357H20.9373C20.7959 11.2357 20.7252 11.2357 20.6812 11.2796C20.6373 11.3235 20.6373 11.3942 20.6373 11.5357V14.3607C20.6373 15.1891 19.9657 15.8607 19.1373 15.8607C18.3089 15.8607 17.6373 15.1891 17.6373 14.3607V11.5357Z" fill="white"/>
<path d="M27.6656 11.2796L28.0192 10.926L27.6656 11.2796ZM20.6812 11.2796L21.0348 11.6332L20.6812 11.2796ZM30.7535 11.2796L30.3999 10.926L30.7535 11.2796ZM17.5934 11.2796L17.2398 11.6332L17.5934 11.2796ZM14.0723 11.7357H17.3373V10.7357H14.0723V11.7357ZM11.0116 12.175C11.1961 11.9905 11.4552 11.8702 11.9443 11.8044C12.4479 11.7367 13.1153 11.7357 14.0723 11.7357V10.7357C13.1436 10.7357 12.3968 10.7346 11.8111 10.8133C11.211 10.894 10.7058 11.0666 10.3045 11.4679L11.0116 12.175ZM10.5723 15.2357C10.5723 14.2787 10.5733 13.6113 10.641 13.1077C10.7068 12.6186 10.8271 12.3595 11.0116 12.175L10.3045 11.4679C9.90322 11.8692 9.73063 12.3744 9.64995 12.9745C9.5712 13.5602 9.57227 14.307 9.57227 15.2357H10.5723ZM10.5723 38.4857V15.2357H9.57227V38.4857H10.5723ZM11.0116 41.5463C10.8271 41.3618 10.7068 41.1028 10.641 40.6136C10.5733 40.11 10.5723 39.4426 10.5723 38.4857H9.57227C9.57227 39.4143 9.5712 40.1611 9.64995 40.7468C9.73063 41.3469 9.90322 41.8522 10.3045 42.2534L11.0116 41.5463ZM14.0723 41.9857C13.1153 41.9857 12.4479 41.9846 11.9443 41.9169C11.4552 41.8511 11.1961 41.7308 11.0116 41.5463L10.3045 42.2534C10.7058 42.6547 11.211 42.8273 11.8111 42.908C12.3968 42.9867 13.1436 42.9857 14.0723 42.9857V41.9857ZM34.2745 41.9857H14.0723V42.9857H34.2745V41.9857ZM37.3352 41.5463C37.1507 41.7308 36.8917 41.8511 36.4025 41.9169C35.8989 41.9846 35.2315 41.9857 34.2745 41.9857V42.9857C35.2032 42.9857 35.95 42.9867 36.5357 42.908C37.1358 42.8273 37.641 42.6547 38.0423 42.2534L37.3352 41.5463ZM37.7745 38.4857C37.7745 39.4426 37.7735 40.11 37.7058 40.6136C37.64 41.1028 37.5197 41.3618 37.3352 41.5463L38.0423 42.2534C38.4436 41.8522 38.6162 41.3469 38.6969 40.7468C38.7756 40.1611 38.7745 39.4143 38.7745 38.4857H37.7745ZM37.7745 15.2357V38.4857H38.7745V15.2357H37.7745ZM37.3352 12.175C37.5197 12.3595 37.64 12.6186 37.7058 13.1077C37.7735 13.6113 37.7745 14.2787 37.7745 15.2357H38.7745C38.7745 14.307 38.7756 13.5602 38.6969 12.9745C38.6162 12.3744 38.4436 11.8692 38.0423 11.4679L37.3352 12.175ZM34.2745 11.7357C35.2315 11.7357 35.8989 11.7367 36.4025 11.8044C36.8917 11.8702 37.1507 11.9905 37.3352 12.175L38.0423 11.4679C37.641 11.0666 37.1358 10.894 36.5357 10.8133C35.95 10.7346 35.2032 10.7357 34.2745 10.7357V11.7357ZM31.0095 11.7357H34.2745V10.7357H31.0095V11.7357ZM30.2095 11.5357V14.3607H31.2095V11.5357H30.2095ZM30.2095 14.3607C30.2095 14.9129 29.7618 15.3607 29.2095 15.3607V16.3607C30.3141 16.3607 31.2095 15.4652 31.2095 14.3607H30.2095ZM29.2095 15.3607C28.6572 15.3607 28.2095 14.9129 28.2095 14.3607H27.2095C27.2095 15.4652 28.105 16.3607 29.2095 16.3607V15.3607ZM28.2095 14.3607V11.5357H27.2095V14.3607H28.2095ZM20.9373 11.7357H27.4095V10.7357H20.9373V11.7357ZM20.1373 11.5357V14.3607H21.1373V11.5357H20.1373ZM20.1373 14.3607C20.1373 14.9129 19.6896 15.3607 19.1373 15.3607V16.3607C20.2419 16.3607 21.1373 15.4652 21.1373 14.3607H20.1373ZM19.1373 15.3607C18.585 15.3607 18.1373 14.9129 18.1373 14.3607H17.1373C17.1373 15.4652 18.0327 16.3607 19.1373 16.3607V15.3607ZM18.1373 14.3607V11.5357H17.1373V14.3607H18.1373ZM28.2095 11.5357C28.2095 11.4791 28.2106 11.3864 28.1996 11.3044C28.1866 11.2082 28.1495 11.0564 28.0192 10.926L27.312 11.6332C27.2727 11.5938 27.2456 11.5497 27.2286 11.5085C27.2133 11.4713 27.2093 11.4437 27.2085 11.4377C27.2077 11.432 27.2085 11.4349 27.209 11.4548C27.2095 11.4744 27.2095 11.4985 27.2095 11.5357H28.2095ZM27.4095 11.7357C27.4467 11.7357 27.4708 11.7357 27.4904 11.7362C27.5103 11.7367 27.5132 11.7375 27.5075 11.7367C27.5015 11.7359 27.4739 11.7319 27.4367 11.7166C27.3955 11.6996 27.3514 11.6725 27.312 11.6332L28.0192 10.926C27.8888 10.7957 27.737 10.7586 27.6407 10.7456C27.5588 10.7346 27.4661 10.7357 27.4095 10.7357V11.7357ZM20.9373 10.7357C20.8807 10.7357 20.788 10.7346 20.7061 10.7456C20.6098 10.7586 20.458 10.7957 20.3277 10.926L21.0348 11.6332C20.9955 11.6725 20.9513 11.6996 20.9101 11.7166C20.8729 11.7319 20.8453 11.7359 20.8393 11.7367C20.8337 11.7375 20.8366 11.7367 20.8564 11.7362C20.876 11.7357 20.9001 11.7357 20.9373 11.7357V10.7357ZM21.1373 11.5357C21.1373 11.4985 21.1373 11.4744 21.1378 11.4548C21.1383 11.4349 21.1391 11.432 21.1383 11.4377C21.1375 11.4437 21.1335 11.4713 21.1182 11.5085C21.1013 11.5497 21.0741 11.5938 21.0348 11.6332L20.3277 10.926C20.1973 11.0564 20.1602 11.2082 20.1472 11.3044C20.1362 11.3864 20.1373 11.4791 20.1373 11.5357H21.1373ZM31.0095 10.7357C30.953 10.7357 30.8602 10.7346 30.7783 10.7456C30.682 10.7586 30.5303 10.7957 30.3999 10.926L31.107 11.6332C31.0677 11.6725 31.0236 11.6996 30.9824 11.7166C30.9452 11.7319 30.9175 11.7359 30.9116 11.7367C30.9059 11.7375 30.9088 11.7367 30.9287 11.7362C30.9483 11.7357 30.9723 11.7357 31.0095 11.7357V10.7357ZM31.2095 11.5357C31.2095 11.4985 31.2096 11.4744 31.2101 11.4548C31.2106 11.4349 31.2113 11.432 31.2106 11.4377C31.2098 11.4437 31.2058 11.4713 31.1905 11.5085C31.1735 11.5497 31.1463 11.5938 31.107 11.6332L30.3999 10.926C30.2696 11.0564 30.2324 11.2082 30.2195 11.3044C30.2085 11.3864 30.2095 11.4791 30.2095 11.5357H31.2095ZM17.3373 11.7357C17.3745 11.7357 17.3986 11.7357 17.4182 11.7362C17.438 11.7367 17.4409 11.7375 17.4353 11.7367C17.4293 11.7359 17.4017 11.7319 17.3645 11.7166C17.3233 11.6996 17.2791 11.6725 17.2398 11.6332L17.9469 10.926C17.8166 10.7957 17.6648 10.7586 17.5685 10.7456C17.4866 10.7346 17.3939 10.7357 17.3373 10.7357V11.7357ZM18.1373 11.5357C18.1373 11.4791 18.1383 11.3864 18.1273 11.3044C18.1144 11.2082 18.0773 11.0564 17.9469 10.926L17.2398 11.6332C17.2005 11.5938 17.1733 11.5497 17.1564 11.5085C17.141 11.4713 17.1371 11.4437 17.1363 11.4377C17.1355 11.432 17.1363 11.4349 17.1368 11.4548C17.1373 11.4744 17.1373 11.4985 17.1373 11.5357H18.1373Z" fill="#76C1E1"/>
<path d="M19.1377 8.11066V14.3607" stroke="#76C1E1" stroke-linecap="round"/>
<path d="M29.21 8.11066V14.3607" stroke="#76C1E1" stroke-linecap="round"/>
<path d="M19.1377 22.694L29.2099 22.694" stroke="#76C1E1" stroke-linecap="round"/>
<path d="M19.1377 28.944L29.2099 28.944" stroke="#76C1E1" stroke-linecap="round"/>
<path d="M19.1377 35.194L29.2099 35.194" stroke="#76C1E1" stroke-linecap="round"/>
</svg>
