<svg width="42" height="37" viewBox="0 0 42 37" fill="none" xmlns="http://www.w3.org/2000/svg">
<path fill-rule="evenodd" clip-rule="evenodd" d="M5 1H12.0578C12.1992 1 12.2699 1 12.3138 1.04393C12.3578 1.08787 12.3578 1.15858 12.3578 1.3V4.5C12.3578 5.32843 13.0293 6 13.8578 6C14.6862 6 15.3578 5.32843 15.3578 4.5V1.3C15.3578 1.15858 15.3578 1.08787 15.4017 1.04393C15.4456 1 15.5164 1 15.6578 1H26.3435C26.4849 1 26.5556 1 26.5996 1.04393C26.6435 1.08787 26.6435 1.15858 26.6435 1.3V4.5C26.6435 5.32843 27.3151 6 28.1435 6C28.9719 6 29.6435 5.32843 29.6435 4.5V1.3C29.6435 1.15858 29.6435 1.08787 29.6874 1.04393C29.7314 1 29.8021 1 29.9435 1H37C38.8856 1 39.8284 1 40.4142 1.58579C41 2.17157 41 3.11438 41 5V32C41 33.8856 41 34.8284 40.4142 35.4142C39.8284 36 38.8856 36 37 36H5C3.11438 36 2.17157 36 1.58579 35.4142C1 34.8284 1 33.8856 1 32V5C1 3.11438 1 2.17157 1.58579 1.58579C2.17157 1 3.11438 1 5 1ZM13.7654 13.94C13.4893 13.94 13.2654 14.1639 13.2654 14.44C13.2654 14.7161 13.4893 14.94 13.7654 14.94H28.0512C28.3273 14.94 28.5512 14.7161 28.5512 14.44C28.5512 14.1639 28.3273 13.94 28.0512 13.94H13.7654ZM13.2654 21.44C13.2654 21.1639 13.4893 20.94 13.7654 20.94H28.0512C28.3273 20.94 28.5512 21.1639 28.5512 21.44C28.5512 21.7161 28.3273 21.94 28.0512 21.94H13.7654C13.4893 21.94 13.2654 21.7161 13.2654 21.44ZM13.7654 27.94C13.4893 27.94 13.2654 28.1639 13.2654 28.44C13.2654 28.7161 13.4893 28.94 13.7654 28.94H28.0512C28.3273 28.94 28.5512 28.7161 28.5512 28.44C28.5512 28.1639 28.3273 27.94 28.0512 27.94H13.7654Z" fill="white"/>
<path d="M40.4142 1.58579L40.7678 1.23223L40.7678 1.23223L40.4142 1.58579ZM40.4142 35.4142L40.7678 35.7678L40.7678 35.7678L40.4142 35.4142ZM1.58579 35.4142L1.23223 35.7678L1.23223 35.7678L1.58579 35.4142ZM28.5512 14.44L29.0512 14.44V14.44H28.5512ZM28.5512 21.44L29.0512 21.44V21.44H28.5512ZM28.5512 28.44L29.0512 28.44V28.44H28.5512ZM26.5996 1.04393L26.9531 0.690381L26.5996 1.04393ZM29.6874 1.04393L29.3339 0.690381L29.6874 1.04393ZM15.4017 1.04393L15.0482 0.690381L15.4017 1.04393ZM12.3138 1.04393L11.9603 1.39749L12.3138 1.04393ZM12.0578 0.5H5V1.5H12.0578V0.5ZM12.8578 4.5V1.3H11.8578V4.5H12.8578ZM13.8578 5.5C13.3055 5.5 12.8578 5.05228 12.8578 4.5H11.8578C11.8578 5.60457 12.7532 6.5 13.8578 6.5V5.5ZM14.8578 4.5C14.8578 5.05228 14.4101 5.5 13.8578 5.5V6.5C14.9623 6.5 15.8578 5.60457 15.8578 4.5H14.8578ZM14.8578 1.3V4.5H15.8578V1.3H14.8578ZM26.3435 0.5H15.6578V1.5H26.3435V0.5ZM27.1435 4.5V1.3H26.1435V4.5H27.1435ZM28.1435 5.5C27.5912 5.5 27.1435 5.05228 27.1435 4.5H26.1435C26.1435 5.60457 27.0389 6.5 28.1435 6.5V5.5ZM29.1435 4.5C29.1435 5.05228 28.6958 5.5 28.1435 5.5V6.5C29.2481 6.5 30.1435 5.60457 30.1435 4.5H29.1435ZM29.1435 1.3V4.5H30.1435V1.3H29.1435ZM37 0.5H29.9435V1.5H37V0.5ZM40.7678 1.23223C40.3665 0.830955 39.8612 0.658359 39.2612 0.577682C38.6755 0.498938 37.9287 0.5 37 0.5V1.5C37.9569 1.5 38.6244 1.50106 39.1279 1.56876C39.6171 1.63453 39.8762 1.75483 40.0607 1.93934L40.7678 1.23223ZM41.5 5C41.5 4.07133 41.5011 3.32452 41.4223 2.73883C41.3416 2.13876 41.169 1.63351 40.7678 1.23223L40.0607 1.93934C40.2452 2.12385 40.3655 2.3829 40.4312 2.87208C40.4989 3.37565 40.5 4.04306 40.5 5H41.5ZM41.5 32V5H40.5V32H41.5ZM40.7678 35.7678C41.169 35.3665 41.3416 34.8612 41.4223 34.2612C41.5011 33.6755 41.5 32.9287 41.5 32H40.5C40.5 32.9569 40.4989 33.6244 40.4312 34.1279C40.3655 34.6171 40.2452 34.8762 40.0607 35.0607L40.7678 35.7678ZM37 36.5C37.9287 36.5 38.6755 36.5011 39.2612 36.4223C39.8612 36.3416 40.3665 36.169 40.7678 35.7678L40.0607 35.0607C39.8762 35.2452 39.6171 35.3655 39.1279 35.4312C38.6244 35.4989 37.9569 35.5 37 35.5V36.5ZM5 36.5H37V35.5H5V36.5ZM1.23223 35.7678C1.63351 36.169 2.13876 36.3416 2.73883 36.4223C3.32452 36.5011 4.07133 36.5 5 36.5V35.5C4.04306 35.5 3.37565 35.4989 2.87208 35.4312C2.3829 35.3655 2.12385 35.2452 1.93934 35.0607L1.23223 35.7678ZM0.5 32C0.5 32.9287 0.498938 33.6755 0.577682 34.2612C0.658359 34.8612 0.830955 35.3665 1.23223 35.7678L1.93934 35.0607C1.75483 34.8762 1.63453 34.6171 1.56876 34.1279C1.50106 33.6244 1.5 32.9569 1.5 32H0.5ZM0.5 5V32H1.5V5H0.5ZM1.23223 1.23223C0.830955 1.63351 0.65836 2.13876 0.577682 2.73883C0.498938 3.32452 0.5 4.07133 0.5 5H1.5C1.5 4.04306 1.50106 3.37565 1.56876 2.87208C1.63453 2.3829 1.75483 2.12385 1.93934 1.93934L1.23223 1.23223ZM5 0.5C4.07133 0.5 3.32452 0.498938 2.73883 0.577682C2.13876 0.65836 1.63351 0.830955 1.23223 1.23223L1.93934 1.93934C2.12385 1.75483 2.3829 1.63453 2.87208 1.56876C3.37565 1.50106 4.04306 1.5 5 1.5V0.5ZM13.7654 14.44V13.44C13.2132 13.44 12.7654 13.8877 12.7654 14.44H13.7654ZM13.7654 14.44H12.7654C12.7654 14.9923 13.2132 15.44 13.7654 15.44V14.44ZM28.0512 14.44H13.7654V15.44H28.0512V14.44ZM28.0512 14.44L28.0512 14.44V15.44C28.6034 15.44 29.0512 14.9923 29.0512 14.44L28.0512 14.44ZM28.0512 14.44H29.0512C29.0512 13.8877 28.6034 13.44 28.0512 13.44V14.44ZM13.7654 14.44H28.0512V13.44H13.7654V14.44ZM13.7654 20.44C13.2132 20.44 12.7654 20.8877 12.7654 21.44H13.7654V20.44ZM28.0512 20.44H13.7654V21.44H28.0512V20.44ZM29.0512 21.44C29.0512 20.8877 28.6034 20.44 28.0512 20.44V21.44H29.0512ZM28.0512 22.44C28.6034 22.44 29.0512 21.9923 29.0512 21.44L28.0512 21.44L28.0512 21.44V22.44ZM13.7654 22.44H28.0512V21.44H13.7654V22.44ZM12.7654 21.44C12.7654 21.9923 13.2132 22.44 13.7654 22.44V21.44H12.7654ZM13.7654 28.44V27.44C13.2132 27.44 12.7654 27.8877 12.7654 28.44H13.7654ZM13.7654 28.44H12.7654C12.7654 28.9923 13.2132 29.44 13.7654 29.44V28.44ZM28.0512 28.44H13.7654V29.44H28.0512V28.44ZM28.0512 28.44L28.0512 28.44V29.44C28.6034 29.44 29.0512 28.9923 29.0512 28.44L28.0512 28.44ZM28.0512 28.44H29.0512C29.0512 27.8877 28.6034 27.44 28.0512 27.44V28.44ZM13.7654 28.44H28.0512V27.44H13.7654V28.44ZM26.3435 1.5C26.3807 1.5 26.4048 1.50003 26.4244 1.50053C26.4442 1.50103 26.4471 1.50179 26.4415 1.50103C26.4355 1.50023 26.4079 1.49624 26.3707 1.48093C26.3295 1.46398 26.2853 1.43681 26.246 1.39749L26.9531 0.690381C26.8228 0.560029 26.671 0.522896 26.5747 0.50995C26.4928 0.498938 26.4001 0.5 26.3435 0.5V1.5ZM27.1435 1.3C27.1435 1.24342 27.1446 1.15069 27.1335 1.06879C27.1206 0.972494 27.0835 0.820732 26.9531 0.690381L26.246 1.39749C26.2067 1.35816 26.1795 1.31402 26.1626 1.27283C26.1473 1.23562 26.1433 1.20801 26.1425 1.20203C26.1417 1.19638 26.1425 1.19927 26.143 1.21912C26.1435 1.23872 26.1435 1.26279 26.1435 1.3H27.1435ZM30.1435 1.3C30.1435 1.26279 30.1435 1.23872 30.144 1.21912C30.1445 1.19927 30.1453 1.19638 30.1445 1.20203C30.1437 1.20801 30.1397 1.23562 30.1244 1.27283C30.1075 1.31402 30.0803 1.35816 30.041 1.39749L29.3339 0.690381C29.2035 0.820732 29.1664 0.972494 29.1534 1.06879C29.1424 1.15069 29.1435 1.24342 29.1435 1.3H30.1435ZM29.9435 0.5C29.8869 0.5 29.7942 0.498938 29.7123 0.50995C29.616 0.522896 29.4642 0.560029 29.3339 0.690381L30.041 1.39749C30.0017 1.43681 29.9575 1.46398 29.9163 1.48093C29.8791 1.49624 29.8515 1.50023 29.8455 1.50103C29.8399 1.50179 29.8428 1.50103 29.8626 1.50053C29.8822 1.50003 29.9063 1.5 29.9435 1.5V0.5ZM15.8578 1.3C15.8578 1.26279 15.8578 1.23872 15.8583 1.21912C15.8588 1.19927 15.8596 1.19638 15.8588 1.20203C15.858 1.20801 15.854 1.23562 15.8387 1.27283C15.8218 1.31402 15.7946 1.35816 15.7553 1.39749L15.0482 0.690381C14.9178 0.820732 14.8807 0.972494 14.8677 1.06879C14.8567 1.15069 14.8578 1.24342 14.8578 1.3H15.8578ZM15.6578 0.5C15.6012 0.5 15.5085 0.498938 15.4266 0.50995C15.3303 0.522896 15.1785 0.560029 15.0482 0.690381L15.7553 1.39749C15.7159 1.43681 15.6718 1.46398 15.6306 1.48093C15.5934 1.49624 15.5658 1.50023 15.5598 1.50103C15.5542 1.50179 15.557 1.50103 15.5769 1.50053C15.5965 1.50003 15.6206 1.5 15.6578 1.5V0.5ZM12.0578 1.5C12.095 1.5 12.1191 1.50003 12.1387 1.50053C12.1585 1.50103 12.1614 1.50179 12.1557 1.50103C12.1498 1.50023 12.1222 1.49624 12.0849 1.48093C12.0438 1.46398 11.9996 1.43681 11.9603 1.39749L12.6674 0.690381C12.537 0.560029 12.3853 0.522896 12.289 0.50995C12.2071 0.498938 12.1144 0.5 12.0578 0.5V1.5ZM12.8578 1.3C12.8578 1.24342 12.8588 1.15069 12.8478 1.06879C12.8349 0.972494 12.7977 0.820732 12.6674 0.690381L11.9603 1.39749C11.921 1.35816 11.8938 1.31402 11.8768 1.27283C11.8615 1.23562 11.8575 1.20801 11.8567 1.20203C11.856 1.19638 11.8567 1.19927 11.8572 1.21912C11.8577 1.23872 11.8578 1.26279 11.8578 1.3H12.8578Z" fill="#76C1E1"/>
</svg>
