<?xml version="1.0" encoding="UTF-8"?>
<!DOCTYPE svg PUBLIC "-//W3C//DTD SVG 1.1//EN" "http://www.w3.org/Graphics/SVG/1.1/DTD/svg11.dtd">
<svg xmlns="http://www.w3.org/2000/svg" version="1.1" width="74px" height="74px" style="shape-rendering:geometricPrecision; text-rendering:geometricPrecision; image-rendering:optimizeQuality; fill-rule:evenodd; clip-rule:evenodd" xmlns:xlink="http://www.w3.org/1999/xlink">
<g><path style="opacity:0.984" fill="#75bfdf" d="M 51.5,50.5 C 49.6986,45.841 47.1986,41.5076 44,37.5C 41.8118,40.5672 39.6452,43.5672 37.5,46.5C 30.7055,42.7245 26.0389,44.3912 23.5,51.5C 25.8762,49.8408 28.5429,48.5074 31.5,47.5C 33.3002,47.9024 34.9668,48.5691 36.5,49.5C 36.4825,53.1293 37.8158,56.1293 40.5,58.5C 22.0601,62.2001 9.89346,55.2001 4,37.5C 2.1612,20.0002 9.6612,8.83358 26.5,4C 46.1335,2.79979 57.1335,11.9665 59.5,31.5C 59.5303,39.104 56.8636,45.4374 51.5,50.5 Z"/></g>
<g><path style="opacity:1" fill="#49545e" d="M 17.5,17.5 C 18.9778,17.238 20.3112,17.5713 21.5,18.5C 20.2214,20.1461 18.5547,21.3128 16.5,22C 15.1196,23.9252 13.6196,25.7585 12,27.5C 10.2443,25.9409 10.2443,24.2742 12,22.5C 13.7297,20.5981 15.563,18.9314 17.5,17.5 Z"/></g>
<g><path style="opacity:1" fill="#49535d" d="M 41.5,17.5 C 47.396,17.9064 50.896,20.9064 52,26.5C 51.6667,26.8333 51.3333,27.1667 51,27.5C 48.9435,23.7771 45.9435,21.1104 42,19.5C 41.5357,18.9056 41.369,18.2389 41.5,17.5 Z"/></g>
<g><path style="opacity:1" fill="#475059" d="M 19.5,25.5 C 21.4672,25.2606 23.3005,25.5939 25,26.5C 25.769,29.0991 25.6023,31.5991 24.5,34C 22.5594,34.7429 20.7261,34.5762 19,33.5C 18.2782,30.7395 18.4448,28.0728 19.5,25.5 Z"/></g>
<g><path style="opacity:1" fill="#475059" d="M 38.5,25.5 C 40.4672,25.2606 42.3005,25.5939 44,26.5C 44.769,29.0991 44.6023,31.5991 43.5,34C 41.5594,34.7429 39.7261,34.5762 38,33.5C 37.2782,30.7395 37.4448,28.0728 38.5,25.5 Z"/></g>
<g><path style="opacity:0.967" fill="#ecedee" d="M 51.5,50.5 C 51.0506,57.2481 47.3839,59.9147 40.5,58.5C 37.8158,56.1293 36.4825,53.1293 36.5,49.5C 36.5569,48.391 36.8902,47.391 37.5,46.5C 39.6452,43.5672 41.8118,40.5672 44,37.5C 47.1986,41.5076 49.6986,45.841 51.5,50.5 Z"/></g>
<g><path style="opacity:1" fill="#4a555f" d="M 37.5,46.5 C 36.8902,47.391 36.5569,48.391 36.5,49.5C 34.9668,48.5691 33.3002,47.9024 31.5,47.5C 28.5429,48.5074 25.8762,49.8408 23.5,51.5C 26.0389,44.3912 30.7055,42.7245 37.5,46.5 Z"/></g>
</svg>
