<svg width="20" height="20" viewBox="0 0 20 16" fill="none" xmlns="http://www.w3.org/2000/svg">
<path d="M17.3152 13.5268L14.4475 11.0735C15.5607 9.87645 16.0997 8.35705 15.9539 6.82771C15.808 5.29838 14.9883 3.87537 13.6633 2.85128C12.3383 1.82718 10.6088 1.27985 8.83025 1.32183C7.05173 1.3638 5.35945 1.99189 4.10137 3.07694C2.8433 4.16199 2.11505 5.62154 2.06639 7.15546C2.01772 8.68938 2.65233 10.1811 3.83972 11.3239C5.02712 12.4666 6.67704 13.1736 8.45024 13.2994C10.2234 13.4252 11.9851 12.9602 13.3731 12.0002L16.2176 14.4535C16.2895 14.516 16.375 14.5656 16.4692 14.5994C16.5634 14.6333 16.6644 14.6507 16.7664 14.6507C16.8685 14.6507 16.9695 14.6333 17.0637 14.5994C17.1579 14.5656 17.2434 14.516 17.3152 14.4535C17.4546 14.3292 17.5324 14.1631 17.5324 13.9902C17.5324 13.8173 17.4546 13.6512 17.3152 13.5268ZM9.03669 12.0002C7.96654 12.0002 6.92041 11.7265 6.03061 11.2137C5.14081 10.7009 4.44729 9.97209 4.03776 9.11937C3.62823 8.26665 3.52107 7.32834 3.72985 6.42309C3.93863 5.51785 4.45396 4.68633 5.21067 4.03368C5.96739 3.38104 6.9315 2.93658 7.9811 2.75652C9.03069 2.57645 10.1186 2.66887 11.1073 3.02208C12.096 3.37528 12.9411 3.97342 13.5356 4.74085C14.1302 5.50828 14.4475 6.41053 14.4475 7.33351C14.4475 8.57119 13.8774 9.75817 12.8627 10.6333C11.848 11.5085 10.4717 12.0002 9.03669 12.0002Z" fill="white"/>
</svg>
