<svg width="22" height="19" viewBox="0 0 22 19" fill="none" xmlns="http://www.w3.org/2000/svg">
<g clip-path="url(#clip0_129_95)">
<path d="M7.41838 18.2265C15.1563 18.2265 19.3879 11.6149 19.3879 5.88149C19.3879 5.6937 19.3841 5.50676 19.376 5.32066C20.1974 4.70822 20.9113 3.94395 21.4744 3.07393C20.7207 3.41948 19.9095 3.6521 19.0586 3.75699C19.9271 3.21984 20.5939 2.37013 20.9085 1.35719C20.0957 1.85416 19.1956 2.21536 18.2372 2.41037C17.4695 1.56703 16.3766 1.03955 15.1664 1.03955C12.8433 1.03955 10.9594 2.98263 10.9594 5.37775C10.9594 5.71822 10.9963 6.0494 11.0684 6.36706C7.57207 6.18561 4.47175 4.45911 2.39684 1.83386C2.03555 2.47505 1.82723 3.21986 1.82723 4.0146C1.82723 5.51989 2.56992 6.84877 3.6993 7.62619C3.00911 7.6042 2.36075 7.40879 1.79406 7.08353C1.79344 7.10174 1.79344 7.11949 1.79344 7.13894C1.79344 9.2402 3.24353 10.9946 5.16844 11.3921C4.81495 11.4915 4.44302 11.5448 4.05915 11.5448C3.7885 11.5448 3.5248 11.5173 3.2685 11.4666C3.80407 13.1905 5.35711 14.445 7.19835 14.4801C5.75852 15.644 3.94473 16.3373 1.97344 16.3373C1.6343 16.3373 1.29926 16.3174 0.969971 16.2772C2.83179 17.508 5.04253 18.2262 7.4186 18.2262" fill="#1F1C14"/>
</g>
<defs>
<clipPath id="clip0_129_95">
<rect width="20.6418" height="17.3288" fill="white" transform="translate(0.900879 0.969238)"/>
</clipPath>
</defs>
</svg>
